<svg width="211.85" height="37.351" viewBox="0 0 211.85 37.351" xmlns="http://www.w3.org/2000/svg">
    <g id="svgGroup" stroke-linecap="round" fill-rule="evenodd" font-size="9pt" stroke="#000"
        stroke-width="0.45mm" fill="#ffffff" style="stroke:#000;stroke-width:0.45mm;fill:#ffffff">
        <path
            d="M 131.3 26 L 129.4 36.75 L 124.9 36.75 L 127.75 21.2 A 35.729 35.729 0 0 0 127.862 20.639 Q 128.013 19.856 128.05 19.425 A 13.587 13.587 0 0 0 128.092 18.769 A 10.947 10.947 0 0 0 128.1 18.35 A 5.464 5.464 0 0 0 127.948 17.026 A 3.802 3.802 0 0 0 126.975 15.25 Q 125.85 14.1 124.05 14.1 A 5.41 5.41 0 0 0 122.257 14.423 Q 121.329 14.748 120.35 15.4 A 9.449 9.449 0 0 0 118.627 16.901 Q 117.919 17.676 117.265 18.674 A 18.169 18.169 0 0 0 116.8 19.425 A 16.105 16.105 0 0 0 115.563 22.101 Q 114.872 24.01 114.45 26.4 L 112.65 36.75 L 108.15 36.75 L 112.7 10.75 L 117.05 10.75 L 115.95 16.75 A 12.994 12.994 0 0 1 118.626 13.091 A 12.132 12.132 0 0 1 120.025 11.95 A 10.483 10.483 0 0 1 122.478 10.658 A 8.425 8.425 0 0 1 125.35 10.15 A 8.326 8.326 0 0 1 127.589 10.436 A 6.248 6.248 0 0 1 130.35 12.025 A 7.233 7.233 0 0 1 132.462 16.398 A 9.22 9.22 0 0 1 132.5 16.75 A 16.03 16.03 0 0 1 134.394 13.988 A 12.634 12.634 0 0 1 136.675 11.9 Q 139.15 10.15 142.05 10.15 A 8.739 8.739 0 0 1 144.369 10.442 A 6.41 6.41 0 0 1 147.375 12.225 Q 149.35 14.3 149.35 17.3 A 13.476 13.476 0 0 1 149.315 18.236 Q 149.247 19.203 149.05 20.45 L 146.15 36.75 L 141.65 36.75 L 144.5 21.2 A 35.729 35.729 0 0 0 144.612 20.639 Q 144.763 19.856 144.8 19.425 A 13.587 13.587 0 0 0 144.842 18.769 A 10.947 10.947 0 0 0 144.85 18.35 A 5.464 5.464 0 0 0 144.698 17.026 A 3.802 3.802 0 0 0 143.725 15.25 Q 142.6 14.1 140.8 14.1 Q 139.15 14.1 137.2 15.35 A 9.361 9.361 0 0 0 135.449 16.824 Q 134.737 17.579 134.081 18.552 A 17.472 17.472 0 0 0 133.65 19.225 Q 132.05 21.85 131.3 26 Z M 151.55 36.75 L 152.2 33.05 L 174.15 5.85 L 157.1 5.85 L 157.8 1.75 L 180.75 1.75 L 180.15 5.35 L 158.05 32.55 L 177.05 32.55 L 176.3 36.75 L 151.55 36.75 Z M 195 15.6 L 195.65 11.7 L 200.25 11.7 L 202.65 3.5 L 206.1 3.5 L 204.65 11.7 L 211.85 11.7 L 211.2 15.6 L 203.95 15.6 L 201.85 27.75 A 15.38 15.38 0 0 0 201.753 28.345 A 12.138 12.138 0 0 0 201.7 28.775 Q 201.65 29.25 201.65 29.65 A 4.697 4.697 0 0 0 201.774 30.762 A 3.168 3.168 0 0 0 202.7 32.375 A 3.581 3.581 0 0 0 204.533 33.271 A 5.074 5.074 0 0 0 205.45 33.35 Q 206.9 33.35 207.9 32.925 Q 208.9 32.5 209.7 32.05 L 210.25 35.95 A 8.535 8.535 0 0 1 209.346 36.4 Q 208.873 36.603 208.32 36.786 A 16.162 16.162 0 0 1 207.875 36.925 Q 206.45 37.35 204.7 37.35 A 8.877 8.877 0 0 1 201.125 36.6 Q 199.4 35.85 198.3 34.225 Q 197.2 32.6 197.2 30 Q 197.2 28.917 197.394 27.592 A 22.994 22.994 0 0 1 197.4 27.55 L 199.45 15.6 L 195 15.6 Z M 72.35 31.4 L 72.75 35.4 A 16.951 16.951 0 0 1 71.512 35.915 Q 70.827 36.17 70.025 36.415 A 35.788 35.788 0 0 1 68.95 36.725 Q 66.65 37.35 63.85 37.35 A 12.983 12.983 0 0 1 60.653 36.971 A 10.633 10.633 0 0 1 58.025 35.925 Q 55.5 34.5 54.075 31.825 A 11.85 11.85 0 0 1 52.885 28.305 A 16.005 16.005 0 0 1 52.65 25.5 A 17.406 17.406 0 0 1 53.698 19.427 A 16.424 16.424 0 0 1 54.375 17.85 Q 56.1 14.35 59.275 12.25 A 12.657 12.657 0 0 1 65.018 10.237 A 15.983 15.983 0 0 1 66.7 10.15 Q 69.6 10.15 71.625 11.25 A 8.955 8.955 0 0 1 73.587 12.67 A 7.623 7.623 0 0 1 74.75 14.1 Q 75.85 15.85 75.85 17.85 Q 75.85 20.548 74.599 22.331 A 6.122 6.122 0 0 1 74.55 22.4 Q 73.25 24.2 71.2 25.175 A 16.606 16.606 0 0 1 67.071 26.498 A 18.521 18.521 0 0 1 66.775 26.55 A 28.93 28.93 0 0 1 63.755 26.903 A 24.422 24.422 0 0 1 62.25 26.95 Q 60.9 26.95 59.575 26.825 Q 58.436 26.718 57.538 26.592 A 29.937 29.937 0 0 1 57.25 26.55 A 10.374 10.374 0 0 0 57.738 28.722 Q 58.351 30.479 59.6 31.6 A 6.743 6.743 0 0 0 63.1 33.234 A 9.311 9.311 0 0 0 64.6 33.35 A 16.435 16.435 0 0 0 66.893 33.198 A 12.194 12.194 0 0 0 69.05 32.7 Q 70.543 32.202 71.684 31.705 A 19.537 19.537 0 0 0 72.35 31.4 Z M 0 35.75 L 5.85 2.15 Q 7.9 1.7 9.95 1.425 A 27.188 27.188 0 0 1 11.621 1.258 Q 12.373 1.204 13.218 1.177 A 56.196 56.196 0 0 1 15 1.15 A 21.44 21.44 0 0 1 18.056 1.356 Q 19.69 1.592 21.071 2.097 A 12.244 12.244 0 0 1 21.825 2.4 A 13.107 13.107 0 0 1 24.956 4.324 A 11.59 11.59 0 0 1 26.45 5.825 Q 28.25 8 29.1 10.775 Q 29.95 13.55 29.95 16.6 A 25.668 25.668 0 0 1 29.273 22.608 A 21.119 21.119 0 0 1 27.55 27.3 Q 25.15 32 20.75 34.675 A 18.119 18.119 0 0 1 14.286 37.027 A 24.232 24.232 0 0 1 10.25 37.35 Q 7.263 37.35 4.885 36.98 A 24.568 24.568 0 0 1 4.55 36.925 A 28.557 28.557 0 0 1 1.88 36.344 A 22.797 22.797 0 0 1 0 35.75 Z M 103.95 11.95 L 100.8 29.7 Q 100.75 29.95 100.725 30.275 Q 100.7 30.6 100.7 30.95 Q 100.7 32.35 101.5 32.925 Q 102.215 33.439 103.33 33.494 A 5.531 5.531 0 0 0 103.6 33.5 L 102.05 37 A 8.839 8.839 0 0 1 100.487 36.871 Q 99.609 36.713 98.917 36.362 A 4.3 4.3 0 0 1 97.925 35.675 A 4.079 4.079 0 0 1 96.862 33.997 Q 96.63 33.334 96.547 32.516 A 9.537 9.537 0 0 1 96.5 31.55 Q 95.1 33.95 92.975 35.65 Q 90.85 37.35 88 37.35 Q 85.55 37.35 83.4 36.025 A 9.741 9.741 0 0 1 80.388 33.076 A 11.864 11.864 0 0 1 79.9 32.275 A 10.428 10.428 0 0 1 78.773 29.069 A 14.16 14.16 0 0 1 78.55 26.5 A 18.789 18.789 0 0 1 79.081 21.944 A 15.255 15.255 0 0 1 80.675 17.975 Q 82.8 14.3 86.55 12.225 A 16.655 16.655 0 0 1 92.979 10.257 A 20.686 20.686 0 0 1 95.1 10.15 A 24.655 24.655 0 0 1 97.542 10.265 Q 98.792 10.39 99.878 10.649 A 14.268 14.268 0 0 1 100.275 10.75 A 43.664 43.664 0 0 1 101.82 11.195 Q 102.543 11.419 103.158 11.644 A 19.702 19.702 0 0 1 103.95 11.95 Z M 33.65 36.75 L 36.95 18.05 Q 37 17.8 37.025 17.475 Q 37.05 17.15 37.05 16.8 Q 37.05 15.4 36.25 14.825 Q 35.535 14.311 34.42 14.257 A 5.531 5.531 0 0 0 34.15 14.25 L 35.7 10.75 A 8.843 8.843 0 0 1 37.272 10.881 Q 38.147 11.039 38.838 11.389 A 4.33 4.33 0 0 1 39.775 12.025 A 4.058 4.058 0 0 1 40.965 13.971 Q 41.156 14.632 41.192 15.426 A 8.296 8.296 0 0 1 41.2 15.8 L 41.2 16.8 Q 42.65 13.25 44.925 11.7 Q 47.2 10.15 50.1 10.15 A 12.671 12.671 0 0 1 50.981 10.179 Q 51.396 10.208 51.758 10.266 A 6.538 6.538 0 0 1 52.075 10.325 A 9.172 9.172 0 0 1 52.655 10.467 Q 53.106 10.594 53.45 10.75 L 51.45 15.15 Q 50.85 14.9 50.2 14.8 Q 49.641 14.714 48.935 14.702 A 13.745 13.745 0 0 0 48.7 14.7 A 5.462 5.462 0 0 0 46.432 15.211 A 7.65 7.65 0 0 0 45.125 15.975 Q 43.817 16.915 42.699 18.763 A 17.434 17.434 0 0 0 41.925 20.2 Q 40.968 22.182 40.247 25.157 A 49.87 49.87 0 0 0 39.6 28.3 L 38.15 36.75 L 33.65 36.75 Z M 10 5.65 L 5.3 32.6 A 19.798 19.798 0 0 0 7.07 32.973 A 22.977 22.977 0 0 0 7.75 33.075 Q 9.05 33.25 10.55 33.25 A 15.599 15.599 0 0 0 14.75 32.705 A 12.982 12.982 0 0 0 18.175 31.2 A 13.63 13.63 0 0 0 23.136 25.703 A 16.272 16.272 0 0 0 23.25 25.475 A 17.453 17.453 0 0 0 24.818 20.305 A 22.689 22.689 0 0 0 25.05 17 A 15.878 15.878 0 0 0 24.482 12.704 A 14.39 14.39 0 0 0 23.95 11.15 Q 22.85 8.45 20.55 6.8 A 8.391 8.391 0 0 0 17.631 5.489 Q 16.469 5.203 15.11 5.158 A 15.529 15.529 0 0 0 14.6 5.15 A 24.253 24.253 0 0 0 13.034 5.199 A 20.351 20.351 0 0 0 12.15 5.275 A 16.981 16.981 0 0 0 10.705 5.493 A 14.286 14.286 0 0 0 10 5.65 Z M 191 10.75 L 186.45 36.75 L 181.95 36.75 L 186.5 10.75 L 191 10.75 Z M 97.65 22.35 L 99 14.6 Q 98.05 14.3 97.025 14.125 Q 96.228 13.989 95.175 13.959 A 21.754 21.754 0 0 0 94.55 13.95 A 12.987 12.987 0 0 0 91.513 14.291 A 10.285 10.285 0 0 0 88.55 15.5 Q 86 17.05 84.575 19.775 A 12.539 12.539 0 0 0 83.239 24.27 A 15.497 15.497 0 0 0 83.15 25.95 Q 83.15 28.35 84.025 30 A 7.044 7.044 0 0 0 85.031 31.45 A 5.733 5.733 0 0 0 86.3 32.5 Q 87.7 33.35 89.2 33.35 A 5.699 5.699 0 0 0 92.709 32.14 A 7.23 7.23 0 0 0 92.95 31.95 A 9.719 9.719 0 0 0 94.577 30.214 Q 95.282 29.261 95.875 28.05 A 19.2 19.2 0 0 0 97.13 24.698 A 24.346 24.346 0 0 0 97.65 22.35 Z M 66.35 13.95 A 8.053 8.053 0 0 0 63.015 14.639 A 7.839 7.839 0 0 0 62.1 15.125 Q 60.2 16.3 58.975 18.325 A 12.036 12.036 0 0 0 57.583 21.763 A 14.481 14.481 0 0 0 57.35 22.95 Q 58.5 23.15 59.675 23.275 A 21.864 21.864 0 0 0 61.068 23.376 A 28.178 28.178 0 0 0 62.25 23.4 A 24.603 24.603 0 0 0 64.704 23.285 Q 65.96 23.159 67.009 22.894 A 10.079 10.079 0 0 0 68.9 22.225 A 4.453 4.453 0 0 0 70.381 21.122 Q 71.123 20.257 71.297 19.004 A 5.849 5.849 0 0 0 71.35 18.2 A 3.878 3.878 0 0 0 70.121 15.338 A 5.178 5.178 0 0 0 69.975 15.2 A 4.689 4.689 0 0 0 67.732 14.085 A 6.753 6.753 0 0 0 66.35 13.95 Z M 188.956 6.212 A 3.782 3.782 0 0 0 189.8 6.3 A 4.428 4.428 0 0 0 189.896 6.299 A 3.374 3.374 0 0 0 192.3 5.3 A 3.291 3.291 0 0 0 193.109 4 A 3.926 3.926 0 0 0 193.3 2.75 Q 193.3 1.65 192.575 0.825 A 2.225 2.225 0 0 0 192.276 0.542 Q 191.864 0.219 191.294 0.088 A 3.782 3.782 0 0 0 190.45 0 Q 188.95 0 187.95 0.975 A 3.179 3.179 0 0 0 187.103 2.395 A 4.158 4.158 0 0 0 186.95 3.55 Q 186.95 4.65 187.675 5.475 A 2.225 2.225 0 0 0 187.974 5.758 Q 188.386 6.081 188.956 6.212 Z"
            vector-effect="non-scaling-stroke" />
    </g>
</svg>